<?xml version="1.0" encoding="utf-8"?>
<svg xmlns="http://www.w3.org/2000/svg" viewBox="0 0 32 32" width="512" height="512">
  <path d="M9 6C6.2504839 6 4 8.2504839 4 11C4 12.558151 4.7658526 13.899491 5.8925781 14.818359C3.6146404 15.977489 2 18.28496 2 21L4 21C4 18.245455 6.2454545 16 9 16C10.378803 16 11.502646 16.470014 12.376953 17.333984C12.140519 17.843183 12 18.404953 12 19C12 20.11651 12.468712 21.127469 13.214844 21.855469C11.882042 22.756969 11 24.282542 11 26L13 26C13 24.345455 14.345455 23 16 23C17.654545 23 19 24.345455 19 26L21 26C21 24.282542 20.117958 22.756969 18.785156 21.855469C19.531288 21.127469 20 20.11651 20 19C20 18.404953 19.859481 17.843183 19.623047 17.333984C20.497354 16.470014 21.621197 16 23 16C25.754545 16 28 18.245455 28 21L30 21C30 18.28496 28.38536 15.977489 26.107422 14.818359C27.234147 13.899491 28 12.558151 28 11C28 8.2504839 25.749516 6 23 6C20.250484 6 18 8.2504839 18 11C18 12.536026 18.742443 13.864036 19.841797 14.783203C19.309075 15.057294 18.814987 15.398298 18.367188 15.796875C17.701468 15.302109 16.886893 15 16 15C15.108203 15 14.2907 15.306906 13.623047 15.806641C13.217425 15.461566 12.774987 15.163791 12.308594 14.90625C12.905609 14.54862 13.505353 14.176968 14 13.78125C15.326182 12.720304 16.251953 11.658203 16.251953 11.658203L16.828125 11L16.251953 10.341797C16.251953 10.341797 15.326182 9.2796959 14 8.21875C12.673818 7.1578041 10.944444 6 9 6 z M 9 8C10.055556 8 11.576182 8.8421959 12.75 9.78125C13.51203 10.390874 13.709647 10.64744 14.046875 11C13.709647 11.35256 13.51203 11.609126 12.75 12.21875C11.576182 13.157804 10.055556 14 9 14C7.3315161 14 6 12.668484 6 11C6 9.3315161 7.3315161 8 9 8 z M 23 8C24.668484 8 26 9.3315161 26 11C26 12.668484 24.668484 14 23 14C21.331516 14 20 12.668484 20 11C20 9.3315161 21.331516 8 23 8 z M 16 17C17.116666 17 18 17.883334 18 19C18 20.116666 17.116666 21 16 21C14.883334 21 14 20.116666 14 19C14 17.883334 14.883334 17 16 17 z" fill="#D9D9D9" />
</svg>