<?xml version="1.0" encoding="utf-8"?>
<svg xmlns="http://www.w3.org/2000/svg" viewBox="0 0 26 26" width="208" height="208">
  <path d="M23.4375 0.03125C23.140625 0.0820313 20.566406 2.542969 19.3125 3.4375L17.59375 1.71875C17.410156 1.535156 17.148438 1.457031 16.90625 1.53125C16.660156 1.605469 16.488281 1.808594 16.4375 2.0625C15.800781 5.328125 16.105469 9.125 16.125 9.28125C16.140625 9.441406 16.203125 9.578125 16.3125 9.6875C16.417969 9.796875 16.558594 9.855469 16.71875 9.875C16.875 9.890625 20.671875 10.203125 23.9375 9.5625C24.1875 9.511719 24.394531 9.335938 24.46875 9.09375C24.542969 8.847656 24.460938 8.585938 24.28125 8.40625L22.5625 6.6875C23.453125 5.433594 25.855469 2.800781 25.90625 2.5C25.980469 2.058594 25.617188 1.367188 25.125 0.875C24.632813 0.382813 23.878906 -0.046875 23.4375 0.03125 Z M 2.5 0.09375C2.058594 0.0195313 1.367188 0.382813 0.875 0.875C0.382813 1.367188 -0.046875 2.121094 0.03125 2.5625C0.0820313 2.859375 2.542969 5.433594 3.4375 6.6875L1.71875 8.40625C1.535156 8.589844 1.457031 8.851563 1.53125 9.09375C1.605469 9.339844 1.808594 9.511719 2.0625 9.5625C5.328125 10.199219 9.125 9.890625 9.28125 9.875C9.441406 9.859375 9.578125 9.796875 9.6875 9.6875C9.796875 9.582031 9.855469 9.441406 9.875 9.28125C9.890625 9.125 10.203125 5.328125 9.5625 2.0625C9.511719 1.8125 9.335938 1.605469 9.09375 1.53125C8.847656 1.457031 8.585938 1.539063 8.40625 1.71875L6.6875 3.4375C5.433594 2.546875 2.800781 0.144531 2.5 0.09375 Z M 6.84375 16.03125C5.46875 16.03125 3.695313 16.117188 2.0625 16.4375C1.8125 16.488281 1.605469 16.664063 1.53125 16.90625C1.457031 17.152344 1.539063 17.414063 1.71875 17.59375L3.4375 19.3125C2.546875 20.566406 0.144531 23.199219 0.09375 23.5C0.0195313 23.941406 0.382813 24.632813 0.875 25.125C1.367188 25.617188 2.121094 26.046875 2.5625 25.96875C2.863281 25.917969 5.433594 23.457031 6.6875 22.5625L8.40625 24.28125C8.589844 24.464844 8.851563 24.542969 9.09375 24.46875C9.339844 24.394531 9.511719 24.191406 9.5625 23.9375C10.199219 20.671875 9.894531 16.875 9.875 16.71875C9.859375 16.558594 9.796875 16.421875 9.6875 16.3125C9.578125 16.203125 9.441406 16.144531 9.28125 16.125C9.203125 16.117188 8.21875 16.03125 6.84375 16.03125 Z M 19.15625 16.03125C17.78125 16.03125 16.796875 16.117188 16.71875 16.125C16.558594 16.140625 16.421875 16.203125 16.3125 16.3125C16.203125 16.417969 16.144531 16.558594 16.125 16.71875C16.109375 16.875 15.800781 20.667969 16.4375 23.9375C16.488281 24.1875 16.664063 24.394531 16.90625 24.46875C17.152344 24.542969 17.414063 24.460938 17.59375 24.28125L19.3125 22.5625C20.566406 23.453125 23.199219 25.855469 23.5 25.90625C23.941406 25.980469 24.632813 25.617188 25.125 25.125C25.617188 24.632813 26.046875 23.878906 25.96875 23.4375C25.917969 23.140625 23.457031 20.566406 22.5625 19.3125L24.28125 17.59375C24.464844 17.410156 24.542969 17.148438 24.46875 16.90625C24.394531 16.660156 24.191406 16.488281 23.9375 16.4375C22.304688 16.117188 20.53125 16.03125 19.15625 16.03125Z" fill="#D9D9D9" />
</svg>