<?xml version="1.0" encoding="utf-8"?>
<svg xmlns="http://www.w3.org/2000/svg" viewBox="0 0 48 48" width="144" height="144">
  <path d="M23.976562 2.9785156 A 1.50015 1.50015 0 0 0 22.5 4.5L22.5 6L6.5 6L4.5 6 A 1.50015 1.50015 0 1 0 4.5 9L5 9L5 30.5C5 33.519774 7.4802259 36 10.5 36L16.574219 36L13.158203 42.830078 A 1.50015 1.50015 0 1 0 15.841797 44.169922L19.925781 36L28.074219 36L32.158203 44.169922 A 1.50015 1.50015 0 1 0 34.841797 42.830078L31.425781 36L37.5 36C40.519774 36 43 33.519774 43 30.5L43 9L43.5 9 A 1.50015 1.50015 0 1 0 43.5 6L41.5 6L25.5 6L25.5 4.5 A 1.50015 1.50015 0 0 0 23.976562 2.9785156 z M 8 9L23.753906 9 A 1.50015 1.50015 0 0 0 24.240234 9L40 9L40 30.5C40 31.898226 38.898226 33 37.5 33L29.21875 33 A 1.50015 1.50015 0 0 0 29.021484 32.980469 A 1.50015 1.50015 0 0 0 28.751953 33L19.25 33 A 1.50015 1.50015 0 0 0 18.931641 32.982422 A 1.50015 1.50015 0 0 0 18.773438 33L10.5 33C9.1017741 33 8 31.898226 8 30.5L8 9 z M 34.470703 13.986328 A 1.50015 1.50015 0 0 0 33.439453 14.439453L23.5 24.378906L19.560547 20.439453 A 1.50015 1.50015 0 0 0 17.439453 20.439453L12.439453 25.439453 A 1.50015 1.50015 0 1 0 14.560547 27.560547L18.5 23.621094L22.439453 27.560547 A 1.50015 1.50015 0 0 0 24.560547 27.560547L35.560547 16.560547 A 1.50015 1.50015 0 0 0 34.470703 13.986328 z" fill="#D9D9D9" />
</svg>