<?xml version="1.0" encoding="utf-8"?>
<svg xmlns="http://www.w3.org/2000/svg" viewBox="0 0 24 24" width="480" height="480">
  <path d="M12 5.109375L13.542969 8.742188L14.015625 9.84375L15.210938 9.949219L19.140625 10.296875L16.164063 12.886719L15.257813 13.675781L15.527344 14.84375L16.414063 18.691406L13.027344 16.660156L12 16.042969L10.972656 16.660156L7.585938 18.691406L8.472656 14.84375L8.742188 13.675781L7.835938 12.886719L4.859375 10.296875L8.789063 9.953125L9.984375 9.847656L10.457031 8.742188L12 5.109375 M 12 0L8.613281 7.960938L0 8.71875L6.523438 14.398438L4.585938 22.824219L12 18.378906L19.414063 22.828125L17.476563 14.398438L24 8.71875L15.386719 7.960938Z" fill="#D9D9D9" />
</svg>