<?xml version="1.0" encoding="utf-8"?>
<svg xmlns="http://www.w3.org/2000/svg" viewBox="0 0 64 64" width="512" height="512">
  <path d="M31 0C30.449219 0 30 0.449219 30 1L30 6.023438C17.011719 6.539063 6.539063 17.011719 6.023438 30L1 30C0.449219 30 0 30.449219 0 31C0 31.550781 0.449219 32 1 32L6.023438 32C6.539063 44.988281 17.011719 55.460938 30 55.972656L30 61C30 61.550781 30.449219 62 31 62C31.550781 62 32 61.550781 32 61L32 55.972656C44.988281 55.460938 55.460938 44.988281 55.972656 32L61 32C61.550781 32 62 31.550781 62 31C62 30.449219 61.550781 30 61 30L55.972656 30C55.460938 17.011719 44.988281 6.539063 32 6.023438L32 1C32 0.449219 31.550781 0 31 0 Z M 30 8.023438L30 30L8.023438 30C8.539063 18.113281 18.113281 8.539063 30 8.023438 Z M 32 8.023438C43.886719 8.539063 53.460938 18.113281 53.972656 30L32 30 Z M 27.21875 12.453125C27.089844 12.429688 26.957031 12.429688 26.824219 12.460938C19.761719 14.042969 14.136719 19.621094 12.496094 26.671875C12.371094 27.210938 12.707031 27.75 13.242188 27.875C13.320313 27.890625 13.394531 27.898438 13.46875 27.898438C13.925781 27.898438 14.335938 27.589844 14.441406 27.125C15.914063 20.820313 20.945313 15.828125 27.261719 14.410156C27.800781 14.292969 28.136719 13.757813 28.015625 13.21875C27.925781 12.8125 27.601563 12.519531 27.21875 12.453125 Z M 34.78125 12.453125C34.398438 12.523438 34.074219 12.8125 33.984375 13.21875C33.863281 13.753906 34.203125 14.292969 34.738281 14.410156C35.574219 14.601563 36.402344 14.851563 37.203125 15.167969C37.320313 15.214844 37.445313 15.234375 37.566406 15.234375C37.964844 15.234375 38.34375 14.996094 38.5 14.597656C38.699219 14.085938 38.445313 13.507813 37.933594 13.304688C37.039063 12.953125 36.113281 12.671875 35.179688 12.460938C35.046875 12.429688 34.910156 12.429688 34.78125 12.453125 Z M 41.203125 15.300781C40.949219 15.34375 40.714844 15.484375 40.554688 15.707031C40.238281 16.160156 40.34375 16.785156 40.796875 17.105469C44.210938 19.515625 46.613281 23.078125 47.558594 27.125C47.664063 27.589844 48.074219 27.898438 48.53125 27.898438C48.605469 27.898438 48.679688 27.890625 48.757813 27.875C49.296875 27.75 49.628906 27.210938 49.503906 26.671875C48.449219 22.144531 45.765625 18.164063 41.949219 15.46875C41.722656 15.308594 41.453125 15.257813 41.203125 15.300781 Z M 8.023438 32L30 32L30 53.972656C18.113281 53.460938 8.539063 43.886719 8.023438 32 Z M 32 32L53.972656 32C53.460938 43.886719 43.886719 53.460938 32 53.972656 Z M 48.4375 33.644531C48.050781 33.722656 47.738281 34.023438 47.65625 34.425781C46.316406 40.960938 41.25 46.128906 34.738281 47.589844C34.203125 47.710938 33.863281 48.246094 33.984375 48.78125C34.089844 49.246094 34.503906 49.5625 34.957031 49.5625C35.03125 49.5625 35.105469 49.554688 35.179688 49.539063C42.453125 47.90625 48.121094 42.132813 49.613281 34.828125C49.722656 34.285156 49.375 33.757813 48.832031 33.648438C48.699219 33.621094 48.5625 33.621094 48.4375 33.644531 Z M 16.363281 36.507813C16.234375 36.511719 16.101563 36.539063 15.976563 36.59375L14.152344 37.40625C13.644531 37.632813 13.417969 38.222656 13.640625 38.730469C13.808594 39.101563 14.171875 39.324219 14.558594 39.324219C14.691406 39.324219 14.832031 39.292969 14.964844 39.234375L16.789063 38.421875C17.292969 38.195313 17.519531 37.605469 17.296875 37.101563C17.128906 36.722656 16.753906 36.5 16.363281 36.507813 Z M 19.867188 41.507813C19.609375 41.511719 19.355469 41.617188 19.164063 41.8125L17.777344 43.253906C17.390625 43.652344 17.402344 44.285156 17.800781 44.667969C17.996094 44.855469 18.246094 44.949219 18.496094 44.949219C18.757813 44.949219 19.019531 44.847656 19.214844 44.640625L20.605469 43.203125C20.988281 42.804688 20.976563 42.171875 20.578125 41.789063C20.378906 41.597656 20.125 41.503906 19.867188 41.507813 Z M 24.988281 44.835938C24.601563 44.84375 24.234375 45.078125 24.078125 45.460938L23.328125 47.3125C23.125 47.828125 23.371094 48.410156 23.882813 48.617188C24.003906 48.667969 24.132813 48.6875 24.257813 48.6875C24.652344 48.6875 25.027344 48.453125 25.1875 48.0625L25.933594 46.210938C26.140625 45.699219 25.894531 45.113281 25.378906 44.90625C25.253906 44.855469 25.121094 44.832031 24.988281 44.835938Z" fill="#D9D9D9" />
</svg>