<?xml version="1.0" encoding="utf-8"?>
<svg xmlns="http://www.w3.org/2000/svg" viewBox="0 0 32 32" width="512" height="512">
  <path d="M9 4C7.3550302 4 6 5.3550302 6 7L6 25C6 26.64497 7.3550302 28 9 28L26 28L26 27L26 4L9 4 z M 9 6L24 6L24 22L9 22C8.6481575 22 8.3148915 22.07394 8 22.1875L8 7C8 6.4349698 8.4349698 6 9 6 z M 12 8.0429688L12 18L11 18L11 20L21 20L21 18L20 18L20 10.708984L16.316406 9.4804688L12 8.0429688 z M 14 10.818359L15 11.150391L15 18L14 18L14 10.818359 z M 17 11.816406L18 12.150391L18 18L17 18L17 11.816406 z M 9 24L24 24L24 26L9 26C8.4349698 26 8 25.56503 8 25C8 24.43497 8.4349698 24 9 24 z" fill="#D9D9D9" />
</svg>