<?xml version="1.0" encoding="utf-8"?>
<svg xmlns="http://www.w3.org/2000/svg" viewBox="0 0 32 32" width="512" height="512">
  <path d="M7.84375 3.46875L7.5625 4.4375L9.25 4.90625L8.09375 8.5625L7.96875 8.9375L8.15625 9.3125L9.875 12.625L8.0625 18.6875L8.0625 18.71875L6.125 22.125L6 22.34375L6 28L8 28L8 22.875L9.8125 19.65625L9.875 19.5625L9.90625 19.46875L11.46875 14.3125L13.40625 15L12.375 18.71875L11.28125 18.375L10.65625 20.28125L12.40625 20.84375L18.375 28L20.96875 28L14.15625 19.8125L15.28125 15.71875L18.3125 17.8125L18.625 18L19 17.96875L23.625 17.46875L23.4375 15.5L19.15625 15.96875L16.0625 13.875L15.96875 13.8125L15.84375 13.78125L12 12.375L10.125 8.75L11.15625 5.4375L14.1875 6.28125C12.917969 6.808594 12 8.050781 12 9.5C12 11.421875 13.578125 13 15.5 13C17.421875 13 19 11.421875 19 9.5C19 8.695313 18.714844 7.96875 18.25 7.375L27.21875 9.84375L27.46875 8.875L11.46875 4.46875L11.5625 4.15625L9.65625 3.5625L9.53125 3.9375 Z M 15.5 8C16.339844 8 17 8.660156 17 9.5C17 10.339844 16.339844 11 15.5 11C14.660156 11 14 10.339844 14 9.5C14 8.660156 14.660156 8 15.5 8Z" fill="#D9D9D9" />
</svg>