<?xml version="1.0" encoding="utf-8"?>
<svg xmlns="http://www.w3.org/2000/svg" viewBox="0 0 48 48" width="144" height="144">
  <path d="M15.597656 4.0136719C14.153656 4.0136719 12.976563 5.1384844 12.976562 6.5214844L12.976562 7.1972656L7.3066406 7.8359375C5.4266406 8.0469375 4.0097656 9.5461719 4.0097656 11.326172L4.0097656 20.638672C4.0097656 22.988672 4.4325781 25.152672 5.1425781 27.138672C5.4185781 27.056672 5.704 27 6 27L8.0507812 27L8.2304688 26.820312C7.4684687 24.943312 7.0097656 22.885625 7.0097656 20.640625L7.0097656 11.328125C7.0097656 11.085125 7.2935781 10.855406 7.6425781 10.816406L14.644531 10.029297C15.403531 9.9442969 15.976563 9.3011094 15.976562 8.5371094L15.976562 7.0136719L32.029297 7.0136719L32.029297 8.5371094C32.029297 9.3011094 32.602328 9.9432969 33.361328 10.029297L40.365234 10.816406C40.713234 10.855406 40.996094 11.085125 40.996094 11.328125L40.996094 20.640625C40.996094 32.309625 28.701594 39.00625 24.933594 40.78125C24.350594 41.05625 23.655266 41.05525 23.072266 40.78125C22.091169 40.319454 20.520183 39.502496 18.75 38.371094L20.199219 36.921875C21.378831 37.651161 22.484526 38.26651 23.337891 38.689453C23.547891 38.793453 23.775906 38.845703 24.003906 38.845703C24.231906 38.845703 24.459922 38.793453 24.669922 38.689453C28.977922 36.555453 38.998047 30.525625 38.998047 20.640625L38.998047 14.015625C38.997047 13.251625 38.423063 12.610391 37.664062 12.525391L30.029297 11.667969L30.029297 10.513672C30.029297 9.6846719 29.357297 9.0136719 28.529297 9.0136719L19.476562 9.0136719C18.648563 9.0136719 17.976562 9.6846719 17.976562 10.513672L17.976562 11.667969L10.341797 12.525391C9.5837969 12.610391 9.0097656 13.251625 9.0097656 14.015625L9.0097656 20.640625C9.0097656 22.292625 9.29525 23.833531 9.78125 25.269531L12.240234 22.810547C12.102234 22.109547 12.009766 21.391625 12.009766 20.640625L12.009766 15.357422L19.644531 14.498047C20.403531 14.413047 20.976563 13.771812 20.976562 13.007812L20.976562 12.013672L27.03125 12.013672L27.03125 13.007812C27.03125 13.771812 27.604281 14.412047 28.363281 14.498047L35.998047 15.357422L35.998047 20.640625C35.998047 28.397625 28.083906 33.532109 24.003906 35.662109C23.513322 35.406214 22.954016 35.091062 22.373047 34.748047L28.560547 28.560547C29.145547 27.975547 29.145547 27.025453 28.560547 26.439453C27.974547 25.853453 27.025453 25.853453 26.439453 26.439453L14.878906 38L12 38C11.734 38 11.479969 38.104969 11.292969 38.292969L7.2929688 42.292969C7.0069688 42.578969 6.9211719 43.008813 7.0761719 43.382812C7.2301719 43.755812 7.596 44 8 44L8.8789062 44L7.4394531 45.439453C6.8534531 46.024453 6.8534531 46.975547 7.4394531 47.560547C7.7314531 47.854547 8.116 48 8.5 48C8.884 48 9.2675469 47.853547 9.5605469 47.560547L11 46.121094L11 47C11 47.404 11.243188 47.768828 11.617188 47.923828C11.741187 47.974828 11.871 48 12 48C12.26 48 12.516031 47.898031 12.707031 47.707031L16.707031 43.707031C16.895031 43.520031 17 43.265 17 43L17 40.800781C18.9626 42.070282 20.707532 42.983587 21.794922 43.496094C22.486922 43.822094 23.244906 43.984375 24.003906 43.984375C24.761906 43.984375 25.520891 43.822094 26.212891 43.496094C31.559891 40.977094 43.996094 33.708625 43.996094 20.640625L43.996094 11.328125C43.996094 9.547125 42.580172 8.0469375 40.701172 7.8359375L35.029297 7.1972656L35.029297 6.5214844C35.029297 5.1384844 33.853203 4.0136719 32.408203 4.0136719L15.597656 4.0136719 z M 22.5 16C22.11625 16 21.732453 16.146453 21.439453 16.439453L8.8789062 29L6 29C5.734 29 5.4799688 29.104969 5.2929688 29.292969L1.2929688 33.292969C1.0069687 33.578969 0.92117187 34.008813 1.0761719 34.382812C1.2301719 34.755812 1.596 35 2 35L2.8789062 35L1.4394531 36.439453C0.85345313 37.024453 0.85345313 37.975547 1.4394531 38.560547C1.7314531 38.854547 2.116 39 2.5 39C2.884 39 3.2675469 38.853547 3.5605469 38.560547L5 37.121094L5 38C5 38.404 5.2431875 38.768828 5.6171875 38.923828C5.7411875 38.974828 5.871 39 6 39C6.26 39 6.5160313 38.898031 6.7070312 38.707031L10.220703 35.193359C10.52007 35.513303 10.815258 35.841749 11.123047 36.144531C11.405047 36.057531 11.697 36 12 36L14.050781 36L14.685547 35.365234C13.386378 34.245003 12.122349 32.958846 11 31.519531L11 31.121094L12.244141 29.876953C13.379482 31.420023 14.705605 32.789589 16.085938 33.964844L18.21875 31.832031C16.81525 30.662156 15.475377 29.291348 14.392578 27.728516L23.560547 18.560547C24.145547 17.975547 24.145547 17.025453 23.560547 16.439453C23.267547 16.146453 22.88375 16 22.5 16 z" fill="#D9D9D9" />
</svg>