<?xml version="1.0" encoding="utf-8"?>
<svg xmlns="http://www.w3.org/2000/svg" viewBox="0 0 50 50" width="500" height="500">
  <path d="M7 4C5.3550302 4 4 5.3550302 4 7L4 22 A 1.0001 1.0001 0 0 0 5 23L22 23 A 1.0001 1.0001 0 0 0 23 22L23 7C23 5.3550302 21.64497 4 20 4L7 4 z M 30 4C28.35503 4 27 5.3550302 27 7L27 22 A 1.0001 1.0001 0 0 0 28 23L45 23 A 1.0001 1.0001 0 0 0 46 22L46 7C46 5.3550302 44.64497 4 43 4L30 4 z M 7 6L20 6C20.56503 6 21 6.4349698 21 7L21 9L6 9L6 7C6 6.4349698 6.4349698 6 7 6 z M 30 6L43 6C43.56503 6 44 6.4349698 44 7L44 9L29 9L29 7C29 6.4349698 29.43497 6 30 6 z M 6 11L21 11L21 21L6 21L6 11 z M 29 11L44 11L44 21L29 21L29 11 z M 7 27C5.3550302 27 4 28.35503 4 30L4 45 A 1.0001 1.0001 0 0 0 5 46L22 46 A 1.0001 1.0001 0 0 0 23 45L23 30C23 28.35503 21.64497 27 20 27L7 27 z M 30 27C28.35503 27 27 28.35503 27 30L27 45 A 1.0001 1.0001 0 0 0 28 46L45 46 A 1.0001 1.0001 0 0 0 46 45L46 30C46 28.35503 44.64497 27 43 27L30 27 z M 7 29L20 29C20.56503 29 21 29.43497 21 30L21 32L6 32L6 30C6 29.43497 6.4349698 29 7 29 z M 30 29L43 29C43.56503 29 44 29.43497 44 30L44 32L29 32L29 30C29 29.43497 29.43497 29 30 29 z M 6 34L21 34L21 44L6 44L6 34 z M 29 34L44 34L44 44L29 44L29 34 z" fill="#D9D9D9" />
</svg>