<?xml version="1.0" encoding="utf-8"?>
<svg xmlns="http://www.w3.org/2000/svg" viewBox="0 0 32 32" width="512" height="512">
  <path d="M6 4L6 28L17.0625 28C17.394531 28.570313 17.796875 29.109375 18.28125 29.59375C21.375 32.6875 26.5 32.6875 29.59375 29.59375C29.734375 29.453125 29.863281 29.300781 30 29.15625L30 32L32 32L32 26L26 26L26 28L28.34375 28C28.285156 28.0625 28.25 28.125 28.1875 28.1875C25.878906 30.496094 22.027344 30.496094 19.71875 28.1875C17.410156 25.878906 17.410156 22.027344 19.71875 19.71875C22.027344 17.410156 25.878906 17.410156 28.1875 19.71875C29.230469 20.761719 29.824219 22.046875 29.90625 23.28125L31.90625 23.125C31.789063 21.359375 30.949219 19.636719 29.59375 18.28125C28.570313 17.257813 27.320313 16.59375 26 16.25L26 4 Z M 8 6L24 6L24 11L8 11 Z M 8 13L24 13L24 15.96875C23.980469 15.96875 23.957031 15.96875 23.9375 15.96875C21.882813 15.96875 19.828125 16.734375 18.28125 18.28125C18.050781 18.511719 17.851563 18.75 17.65625 19L8 19 Z M 8 21L16.5 21C15.882813 22.59375 15.789063 24.359375 16.21875 26L8 26Z" fill="#D9D9D9" />
</svg>